<?xml version="1.0" encoding="UTF-8"?>
<svg id="Layer_2" data-name="Layer 2" xmlns="http://www.w3.org/2000/svg" viewBox="0 0 76.6 76.6">
  <defs>
    <style>
      .cls-1 {
        fill: #fff;
      }

      .cls-2 {
        fill: #070a0d;
      }
    </style>
  </defs>
  <g id="Layer_1-2" data-name="Layer 1">
    <g>
      <circle class="cls-2" cx="38.3" cy="38.3" r="38.3"/>
      <path class="cls-1" d="M55.69,28.73h-12.18v-3.48h12.18v3.48ZM58.69,46.12c-.77,2.26-3.53,5.22-8.87,5.22s-9.68-3.01-9.68-9.87,4.04-10.3,9.51-10.3,8.63,3.1,9.35,7.7c.14.88.19,2.07.17,3.72h-13.96c.23,5.59,6.06,5.76,7.98,3.53h5.51ZM45.32,39.17h8.64c-.18-2.69-1.98-3.86-4.31-3.86-2.55,0-3.96,1.34-4.33,3.86ZM28.67,51.32h-11.25v-26.03h12.09c9.52.14,9.71,9.47,4.73,12.01,6.02,2.19,6.22,14.02-5.58,14.02ZM22.64,35.69h6.23c4.36,0,5.05-5.22-.54-5.22h-5.69s0,5.22,0,5.22ZM28.54,40.91h-5.9v5.25h5.81c5.31,0,4.99-5.25.09-5.25Z"/>
    </g>
  </g>
</svg>