<?xml version="1.0" encoding="UTF-8"?>
<svg id="Layer_2" data-name="Layer 2" xmlns="http://www.w3.org/2000/svg" xmlns:xlink="http://www.w3.org/1999/xlink" viewBox="0 0 76.6 76.6">
  <defs>
    <style>
      .cls-1 {
        fill: #fff;
      }

      .cls-2 {
        fill: none;
      }

      .cls-3 {
        fill: url(#radial-gradient);
      }

      .cls-4 {
        fill: url(#radial-gradient-2);
      }

      .cls-5 {
        clip-path: url(#clippath);
      }
    </style>
    <radialGradient id="radial-gradient" cx="7.56" cy="67.79" fx="7.56" fy="67.79" r="82.35" gradientUnits="userSpaceOnUse">
      <stop offset="0" stop-color="#fddc56"/>
      <stop offset=".1" stop-color="#fddc56"/>
      <stop offset=".5" stop-color="#f05742"/>
      <stop offset="1" stop-color="#ba4598"/>
    </radialGradient>
    <clipPath id="clippath">
      <circle class="cls-2" cx="38.3" cy="38.3" r="38.3"/>
    </clipPath>
    <radialGradient id="radial-gradient-2" cx="-2941.06" cy="1289.68" fx="-2941.06" fy="1289.68" r="38.29" gradientTransform="translate(-4121.87 3485.42) rotate(78.68) scale(.89 -3.65)" gradientUnits="userSpaceOnUse">
      <stop offset="0" stop-color="#4170b6"/>
      <stop offset=".13" stop-color="#4170b6"/>
      <stop offset="1" stop-color="#5d52a2" stop-opacity="0"/>
    </radialGradient>
  </defs>
  <g id="Layer_1-2" data-name="Layer 1">
    <g>
      <circle class="cls-3" cx="38.3" cy="38.3" r="38.3"/>
      <g class="cls-5">
        <path class="cls-4" d="M37.06.01C21.07.01,16.4.03,15.49.1c-3.28.27-5.32.79-7.55,1.9-1.71.85-3.07,1.84-4.4,3.22C1.11,7.74-.36,10.85-.9,14.54c-.26,1.79-.33,2.16-.35,11.3,0,3.05,0,7.06,0,12.44,0,15.98.02,20.65.09,21.55.27,3.19.77,5.2,1.83,7.4,2.03,4.21,5.9,7.36,10.46,8.54,1.58.41,3.32.63,5.56.74.95.04,10.62.07,20.29.07s19.35-.01,20.27-.06c2.59-.12,4.1-.32,5.76-.75,4.59-1.18,8.39-4.29,10.46-8.56,1.04-2.14,1.57-4.23,1.81-7.26.05-.66.07-11.18.07-21.68s-.02-21.01-.08-21.67c-.24-3.08-.77-5.14-1.84-7.33-.88-1.79-1.86-3.13-3.28-4.49-2.53-2.42-5.63-3.89-9.32-4.43-1.79-.26-2.15-.34-11.3-.35h-12.47Z"/>
      </g>
      <path class="cls-1" d="M38.29,17.07c-5.77,0-6.49.03-8.75.13-2.26.1-3.8.46-5.15.99-1.4.54-2.58,1.27-3.76,2.45-1.18,1.18-1.91,2.36-2.45,3.76-.53,1.35-.88,2.89-.99,5.15-.1,2.26-.13,2.99-.13,8.75s.03,6.49.13,8.75c.1,2.26.46,3.8.99,5.15.54,1.4,1.27,2.58,2.45,3.76,1.18,1.18,2.36,1.91,3.76,2.45,1.35.53,2.89.88,5.15.99,2.26.1,2.99.13,8.75.13s6.49-.03,8.75-.13c2.26-.1,3.8-.46,5.16-.99,1.4-.54,2.58-1.27,3.76-2.45,1.18-1.18,1.91-2.36,2.45-3.76.52-1.35.88-2.89.99-5.15.1-2.26.13-2.99.13-8.75s-.03-6.49-.13-8.75c-.11-2.26-.46-3.8-.99-5.15-.54-1.4-1.27-2.58-2.45-3.76-1.18-1.18-2.36-1.91-3.76-2.45-1.35-.53-2.9-.88-5.16-.99-2.26-.1-2.99-.13-8.75-.13h0ZM36.39,20.9c.57,0,1.2,0,1.9,0,5.67,0,6.34.02,8.58.12,2.07.09,3.19.44,3.94.73.99.38,1.7.84,2.44,1.59.74.74,1.2,1.45,1.59,2.44.29.75.64,1.87.73,3.94.1,2.24.12,2.91.12,8.58s-.02,6.34-.12,8.58c-.09,2.07-.44,3.19-.73,3.94-.38.99-.85,1.7-1.59,2.44-.74.74-1.45,1.2-2.44,1.59-.75.29-1.87.64-3.94.73-2.24.1-2.91.12-8.58.12s-6.34-.02-8.58-.12c-2.07-.1-3.19-.44-3.94-.73-.99-.38-1.7-.84-2.44-1.59-.74-.74-1.2-1.45-1.59-2.44-.29-.75-.64-1.87-.73-3.94-.1-2.24-.12-2.91-.12-8.58s.02-6.34.12-8.58c.09-2.07.44-3.19.73-3.94.38-.99.85-1.7,1.59-2.44.74-.74,1.45-1.2,2.44-1.59.75-.29,1.87-.64,3.94-.73,1.96-.09,2.72-.11,6.67-.12h0ZM49.63,24.42c-1.41,0-2.55,1.14-2.55,2.55s1.14,2.55,2.55,2.55,2.55-1.14,2.55-2.55-1.14-2.55-2.55-2.55h0ZM38.29,27.4c-6.02,0-10.9,4.88-10.9,10.9s4.88,10.9,10.9,10.9c6.02,0,10.9-4.88,10.9-10.9s-4.88-10.9-10.9-10.9h0ZM38.29,31.22c3.91,0,7.08,3.17,7.08,7.08s-3.17,7.08-7.08,7.08-7.08-3.17-7.08-7.08,3.17-7.08,7.08-7.08Z"/>
    </g>
  </g>
</svg>