<?xml version="1.0" encoding="UTF-8"?>
<svg id="Layer_2" data-name="Layer 2" xmlns="http://www.w3.org/2000/svg" viewBox="0 0 76.6 76.6">
  <defs>
    <style>
      .cls-1 {
        fill: #fff;
      }

      .cls-2 {
        fill: #070a0d;
      }
    </style>
  </defs>
  <g id="Layer_1-2" data-name="Layer 1">
    <g>
      <circle class="cls-2" cx="38.3" cy="38.3" r="38.3"/>
      <path class="cls-1" d="M53.78,24.39h-30.97c-2.76,0-5.01,2.25-5.01,5.01v17.81c0,2.76,2.25,5.01,5.01,5.01h30.97c2.76,0,5.01-2.25,5.01-5.01v-17.81c0-2.76-2.25-5.01-5.01-5.01ZM51.34,27.65l-13.04,8.4-13.04-8.4h26.08ZM53.78,48.94h-30.97c-.96,0-1.74-.78-1.74-1.74v-17.72l16.22,10.43s.05.02.07.04c.02.01.05.03.07.04.13.06.26.12.39.15.01,0,.03,0,.04,0,.15.03.29.06.44.06h0c.15,0,.29-.02.44-.06.01,0,.03,0,.04,0,.13-.03.26-.09.39-.15.02-.01.05-.02.07-.04.02-.01.05-.02.07-.04l16.22-10.43v17.72c0,.96-.78,1.74-1.74,1.74Z"/>
    </g>
  </g>
</svg>