<?xml version="1.0" encoding="UTF-8"?>
<svg id="Layer_2" data-name="Layer 2" xmlns="http://www.w3.org/2000/svg" viewBox="0 0 76.6 76.6">
  <defs>
    <style>
      .cls-1 {
        fill: #fff;
      }

      .cls-2 {
        fill: #070a0d;
      }
    </style>
  </defs>
  <g id="Layer_1-2" data-name="Layer 1">
    <g>
      <circle class="cls-2" cx="38.3" cy="38.3" r="38.3"/>
      <g>
        <path class="cls-1" d="M46.61,25.04v.97h-16.63v-.97c0-.52.42-.95.94-.95h14.74c.52,0,.95.43.95.95Z"/>
        <polygon class="cls-1" points="41.66 46.77 41.15 49.67 35.44 49.67 34.94 46.77 41.66 46.77"/>
        <path class="cls-1" d="M57.66,30.15v20.66c0,.93-.76,1.69-1.69,1.69H20.63c-.93,0-1.69-.76-1.69-1.69v-20.66c0-.93.76-1.68,1.69-1.68h.06v15.41c0,2.91,2.36,5.28,5.28,5.28h8.04l.32,1.84h7.93l.31-1.84h8.05c2.92,0,5.28-2.37,5.28-5.28v-15.41h.06c.93,0,1.69.75,1.69,1.68Z"/>
        <path class="cls-1" d="M54.59,28.17v15.71c0,2.18-1.78,3.96-3.96,3.96h-7.82l.42-2.4h-9.87l.42,2.4h-7.81c-2.18,0-3.96-1.78-3.96-3.96v-15.71c0-.46.38-.84.84-.84h30.91c.46,0,.84.38.84.84Z"/>
      </g>
    </g>
  </g>
</svg>