<?xml version="1.0" encoding="UTF-8"?>
<svg id="Layer_2" data-name="Layer 2" xmlns="http://www.w3.org/2000/svg" viewBox="0 0 76.6 76.6">
  <defs>
    <style>
      .cls-1 {
        fill: #fff;
      }

      .cls-2 {
        fill: #ed2153;
      }

      .cls-3 {
        fill: #6ac8cf;
      }
    </style>
  </defs>
  <g id="Layer_1-2" data-name="Layer 1">
    <g>
      <circle cx="38.3" cy="38.3" r="38.3"/>
      <path class="cls-2" d="M20.87,53.49l.14.39s-.07-.18-.14-.39ZM26.41,44.53c.25-2.13,1.08-3.31,2.66-4.54,2.25-1.65,5.06-.72,5.06-.72v-5.54c.68-.02,1.37.03,2.04.13v7.13s-2.81-.93-5.06.72c-1.57,1.22-2.41,2.41-2.66,4.54,0,1.15.2,2.66,1.15,3.96-.24-.13-.48-.27-.73-.44-2.09-1.47-2.48-3.68-2.47-5.24ZM47.8,23.49c-1.55-1.77-2.14-3.56-2.35-4.82h1.95s-.38,3.3,2.44,6.53l.04.04c-.77-.5-1.47-1.09-2.08-1.76h0ZM57.19,28.51v6.99s-2.49-.1-4.33-.59c-2.57-.68-4.22-1.73-4.22-1.73,0,0-1.14-.75-1.23-.8v14.43c0,.8-.21,2.81-.85,4.48-.84,2.19-2.14,3.63-2.37,3.92,0,0-1.58,1.95-4.36,3.25-2.5,1.18-4.71,1.15-5.36,1.18,0,0-3.8.15-7.23-2.16-.74-.51-1.43-1.09-2.07-1.73l.02.02c3.42,2.32,7.23,2.16,7.23,2.16.66-.03,2.86,0,5.36-1.18,2.78-1.31,4.36-3.25,4.36-3.25.24-.29,1.54-1.73,2.37-3.92.64-1.67.85-3.68.85-4.48v-14.43c.09.05,1.23.8,1.23.8,0,0,1.65,1.05,4.22,1.73,1.84.49,4.33.59,4.33.59v-5.47c.85.2,1.58.25,2.05.2Z"/>
      <path class="cls-1" d="M55.14,28.3v5.47s-2.49-.1-4.33-.59c-2.57-.68-4.22-1.73-4.22-1.73,0,0-1.14-.75-1.23-.8v14.43c0,.8-.21,2.81-.85,4.48-.84,2.19-2.14,3.63-2.37,3.92,0,0-1.58,1.95-4.36,3.25-2.5,1.18-4.71,1.15-5.36,1.18,0,0-3.8.15-7.23-2.16l-.02-.02c-.36-.37-.7-.75-1.02-1.15-1.09-1.39-1.76-3.03-1.93-3.5h0c-.27-.82-.84-2.78-.76-4.67.14-3.34,1.26-5.4,1.56-5.91.79-1.4,1.82-2.66,3.03-3.71,1.08-.91,2.3-1.63,3.6-2.14,1.42-.6,2.94-.91,4.48-.94v5.54s-2.81-.93-5.06.72c-1.57,1.22-2.41,2.41-2.66,4.54,0,1.56.38,3.78,2.48,5.25.25.16.49.31.73.44.37.5.81.93,1.32,1.29,2.06,1.36,3.78,1.45,5.98.57,1.47-.59,2.57-1.91,3.08-3.39.32-.92.32-1.84.32-2.8v-27.21h5.12c.21,1.26.79,3.05,2.35,4.82.62.67,1.32,1.26,2.08,1.76.22.25,1.38,1.44,2.86,2.19.76.38,1.57.67,2.4.87h0Z"/>
      <g>
        <path class="cls-3" d="M20.18,49.4l.13.37s-.07-.17-.13-.37Z"/>
        <path class="cls-3" d="M29.66,34.68c-1.32.5-2.53,1.23-3.6,2.14-1.22,1.05-2.25,2.31-3.03,3.72-.3.51-1.43,2.56-1.56,5.91-.08,1.9.5,3.85.76,4.66h0c.17.47.84,2.12,1.93,3.51.32.4.66.79,1.02,1.15-1.16-.8-2.19-1.77-3.07-2.87-1.08-1.38-1.75-3.01-1.92-3.48v-.02c-.27-.81-.85-2.78-.76-4.67.14-3.34,1.26-5.4,1.56-5.91.79-1.4,1.81-2.66,3.03-3.72,1.08-.91,2.3-1.63,3.6-2.14.82-.34,1.67-.59,2.55-.75,1.32-.23,2.66-.25,3.98-.06v1.59c-1.55.03-3.07.34-4.48.94h0Z"/>
        <path class="cls-3" d="M45.45,18.67h-5.12v27.21c0,.96,0,1.88-.32,2.8-.52,1.47-1.62,2.8-3.08,3.39-2.2.89-3.93.79-5.98-.57-.51-.35-.96-.79-1.32-1.28,1.75.93,3.31.91,5.25.14,1.47-.59,2.57-1.92,3.08-3.39.32-.92.32-1.84.32-2.8v-27.21h7.08s-.09.67.09,1.72ZM55.14,26.79v1.51c-.83-.2-1.64-.49-2.4-.87-1.48-.73-2.63-1.94-2.86-2.19.26.17.53.32.81.47,1.81.9,3.58,1.17,4.45,1.08Z"/>
      </g>
    </g>
  </g>
</svg>