<?xml version="1.0" encoding="UTF-8"?>
<svg id="Layer_2" data-name="Layer 2" xmlns="http://www.w3.org/2000/svg" viewBox="0 0 76.6 76.6">
  <defs>
    <style>
      .cls-1 {
        fill: #fff;
      }

      .cls-2 {
        fill: #ec2024;
      }
    </style>
  </defs>
  <g id="Layer_1-2" data-name="Layer 1">
    <g>
      <circle class="cls-2" cx="38.3" cy="38.3" r="38.3"/>
      <g>
        <path class="cls-1" d="M59.21,27.36c-.5-1.96-1.98-3.49-3.86-4.02-3.4-.95-17.06-.95-17.06-.95,0,0-13.65,0-17.06.95-1.88.52-3.36,2.06-3.86,4.02-.91,3.54-.91,10.94-.91,10.94,0,0,0,7.39.91,10.94.5,1.96,1.98,3.49,3.86,4.02,3.4.95,17.06.95,17.06.95,0,0,13.65,0,17.06-.95,1.88-.52,3.36-2.06,3.86-4.02.91-3.54.91-10.94.91-10.94,0,0,0-7.39-.91-10.94Z"/>
        <path class="cls-2" d="M33.93,45.11l11.34-6.81-11.34-6.81v13.63Z"/>
      </g>
    </g>
  </g>
</svg>